<mxfile host="app.diagrams.net" modified="2023-08-04T04:19:53.197Z" agent="Mozilla/5.0 (Windows NT 10.0; Win64; x64) AppleWebKit/537.36 (KHTML, like Gecko) Chrome/115.0.0.0 Safari/537.36" etag="NrM_MTeewAj21QXiq20E" version="21.6.6" type="device">
  <diagram id="TcpIv1mRsalTAPsz7Y_Z" name="PÃ¡gina-1">
    <mxGraphModel dx="1434" dy="758" grid="0" gridSize="5" guides="1" tooltips="1" connect="1" arrows="1" fold="1" page="1" pageScale="1" pageWidth="1169" pageHeight="827" math="0" shadow="0">
      <root>
        <mxCell id="0" />
        <mxCell id="1" parent="0" />
        <mxCell id="zyEopgTi7AJE60l7FQdP-1" value="USER" style="rounded=0;whiteSpace=wrap;html=1;" parent="1" vertex="1">
          <mxGeometry x="225" y="335" width="90" height="40" as="geometry" />
        </mxCell>
        <mxCell id="zyEopgTi7AJE60l7FQdP-2" value="has" style="shape=rhombus;perimeter=rhombusPerimeter;whiteSpace=wrap;html=1;align=center;fillColor=none;gradientColor=none;" parent="1" vertex="1">
          <mxGeometry x="365" y="323" width="120" height="65" as="geometry" />
        </mxCell>
        <mxCell id="zyEopgTi7AJE60l7FQdP-3" value="" style="endArrow=none;html=1;rounded=0;entryX=0;entryY=0.5;entryDx=0;entryDy=0;" parent="1" target="zyEopgTi7AJE60l7FQdP-2" edge="1">
          <mxGeometry relative="1" as="geometry">
            <mxPoint x="315" y="355" as="sourcePoint" />
            <mxPoint x="475" y="355" as="targetPoint" />
          </mxGeometry>
        </mxCell>
        <mxCell id="zyEopgTi7AJE60l7FQdP-4" value="" style="endArrow=none;html=1;rounded=0;entryX=0;entryY=0.5;entryDx=0;entryDy=0;exitX=1;exitY=0.5;exitDx=0;exitDy=0;" parent="1" source="zyEopgTi7AJE60l7FQdP-2" target="zyEopgTi7AJE60l7FQdP-5" edge="1">
          <mxGeometry relative="1" as="geometry">
            <mxPoint x="515" y="355" as="sourcePoint" />
            <mxPoint x="545" y="355.5" as="targetPoint" />
          </mxGeometry>
        </mxCell>
        <mxCell id="zyEopgTi7AJE60l7FQdP-5" value="PROFILE" style="rounded=0;whiteSpace=wrap;html=1;gradientColor=none;fillColor=none;" parent="1" vertex="1">
          <mxGeometry x="535" y="335.5" width="90" height="40" as="geometry" />
        </mxCell>
        <mxCell id="zyEopgTi7AJE60l7FQdP-11" value="" style="ellipse;whiteSpace=wrap;html=1;aspect=fixed;" parent="1" vertex="1">
          <mxGeometry x="185" y="375" width="10" height="10" as="geometry" />
        </mxCell>
        <mxCell id="zyEopgTi7AJE60l7FQdP-12" value="" style="ellipse;whiteSpace=wrap;html=1;aspect=fixed;strokeColor=#000000;fillStyle=solid;fillColor=#000000;" parent="1" vertex="1">
          <mxGeometry x="185" y="355" width="10" height="10" as="geometry" />
        </mxCell>
        <mxCell id="zyEopgTi7AJE60l7FQdP-13" value="" style="ellipse;whiteSpace=wrap;html=1;aspect=fixed;" parent="1" vertex="1">
          <mxGeometry x="185" y="335" width="10" height="10" as="geometry" />
        </mxCell>
        <mxCell id="zyEopgTi7AJE60l7FQdP-14" value="" style="ellipse;whiteSpace=wrap;html=1;aspect=fixed;fillColor=#000000;" parent="1" vertex="1">
          <mxGeometry x="185" y="315" width="10" height="10" as="geometry" />
        </mxCell>
        <mxCell id="zyEopgTi7AJE60l7FQdP-20" value="" style="endArrow=none;html=1;rounded=0;entryX=1;entryY=0.5;entryDx=0;entryDy=0;exitX=0;exitY=0;exitDx=0;exitDy=0;" parent="1" source="zyEopgTi7AJE60l7FQdP-1" target="zyEopgTi7AJE60l7FQdP-14" edge="1">
          <mxGeometry width="50" height="50" relative="1" as="geometry">
            <mxPoint x="205" y="365" as="sourcePoint" />
            <mxPoint x="255" y="315" as="targetPoint" />
            <Array as="points">
              <mxPoint x="215" y="320" />
            </Array>
          </mxGeometry>
        </mxCell>
        <mxCell id="zyEopgTi7AJE60l7FQdP-21" value="" style="endArrow=none;html=1;rounded=0;entryX=1;entryY=0.5;entryDx=0;entryDy=0;exitX=0;exitY=0.25;exitDx=0;exitDy=0;" parent="1" source="zyEopgTi7AJE60l7FQdP-1" target="zyEopgTi7AJE60l7FQdP-13" edge="1">
          <mxGeometry width="50" height="50" relative="1" as="geometry">
            <mxPoint x="235" y="345" as="sourcePoint" />
            <mxPoint x="205" y="330" as="targetPoint" />
            <Array as="points">
              <mxPoint x="215" y="340" />
            </Array>
          </mxGeometry>
        </mxCell>
        <mxCell id="zyEopgTi7AJE60l7FQdP-22" value="" style="endArrow=none;html=1;rounded=0;entryX=1;entryY=0.5;entryDx=0;entryDy=0;exitX=0;exitY=0.5;exitDx=0;exitDy=0;" parent="1" source="zyEopgTi7AJE60l7FQdP-1" target="zyEopgTi7AJE60l7FQdP-12" edge="1">
          <mxGeometry width="50" height="50" relative="1" as="geometry">
            <mxPoint x="245" y="355" as="sourcePoint" />
            <mxPoint x="215" y="340" as="targetPoint" />
            <Array as="points">
              <mxPoint x="215" y="360" />
            </Array>
          </mxGeometry>
        </mxCell>
        <mxCell id="zyEopgTi7AJE60l7FQdP-23" value="" style="endArrow=none;html=1;rounded=0;entryX=1;entryY=0.5;entryDx=0;entryDy=0;exitX=0;exitY=0.75;exitDx=0;exitDy=0;" parent="1" source="zyEopgTi7AJE60l7FQdP-1" target="zyEopgTi7AJE60l7FQdP-11" edge="1">
          <mxGeometry width="50" height="50" relative="1" as="geometry">
            <mxPoint x="255" y="365" as="sourcePoint" />
            <mxPoint x="225" y="350" as="targetPoint" />
            <Array as="points">
              <mxPoint x="215" y="380" />
            </Array>
          </mxGeometry>
        </mxCell>
        <mxCell id="zyEopgTi7AJE60l7FQdP-29" value="id" style="text;html=1;strokeColor=none;fillColor=none;align=center;verticalAlign=middle;whiteSpace=wrap;rounded=0;" parent="1" vertex="1">
          <mxGeometry x="155" y="315" width="30" height="10" as="geometry" />
        </mxCell>
        <mxCell id="zyEopgTi7AJE60l7FQdP-30" value="name" style="text;html=1;strokeColor=none;fillColor=none;align=center;verticalAlign=middle;whiteSpace=wrap;rounded=0;" parent="1" vertex="1">
          <mxGeometry x="145" y="335.5" width="30" height="10" as="geometry" />
        </mxCell>
        <mxCell id="zyEopgTi7AJE60l7FQdP-31" value="email" style="text;html=1;strokeColor=none;fillColor=none;align=center;verticalAlign=middle;whiteSpace=wrap;rounded=0;" parent="1" vertex="1">
          <mxGeometry x="145" y="355" width="30" height="10" as="geometry" />
        </mxCell>
        <mxCell id="zyEopgTi7AJE60l7FQdP-32" value="password" style="text;html=1;strokeColor=none;fillColor=none;align=center;verticalAlign=middle;whiteSpace=wrap;rounded=0;" parent="1" vertex="1">
          <mxGeometry x="135" y="375" width="30" height="10" as="geometry" />
        </mxCell>
        <mxCell id="zyEopgTi7AJE60l7FQdP-33" value="(1,1)" style="text;html=1;align=center;verticalAlign=middle;resizable=0;points=[];autosize=1;strokeColor=none;fillColor=none;" parent="1" vertex="1">
          <mxGeometry x="315" y="353" width="50" height="30" as="geometry" />
        </mxCell>
        <mxCell id="zyEopgTi7AJE60l7FQdP-34" value="(1,1)" style="text;html=1;align=center;verticalAlign=middle;resizable=0;points=[];autosize=1;strokeColor=none;fillColor=none;" parent="1" vertex="1">
          <mxGeometry x="485" y="353" width="50" height="30" as="geometry" />
        </mxCell>
        <mxCell id="zyEopgTi7AJE60l7FQdP-40" value="uploads" style="shape=rhombus;perimeter=rhombusPerimeter;whiteSpace=wrap;html=1;align=center;fillColor=none;gradientColor=none;" parent="1" vertex="1">
          <mxGeometry x="685" y="323" width="120" height="65" as="geometry" />
        </mxCell>
        <mxCell id="zyEopgTi7AJE60l7FQdP-41" value="" style="endArrow=none;html=1;rounded=0;entryX=0;entryY=0.5;entryDx=0;entryDy=0;exitX=1;exitY=0.5;exitDx=0;exitDy=0;" parent="1" source="zyEopgTi7AJE60l7FQdP-40" target="zyEopgTi7AJE60l7FQdP-42" edge="1">
          <mxGeometry relative="1" as="geometry">
            <mxPoint x="835" y="355" as="sourcePoint" />
            <mxPoint x="865" y="355.5" as="targetPoint" />
          </mxGeometry>
        </mxCell>
        <mxCell id="zyEopgTi7AJE60l7FQdP-42" value="POST" style="rounded=0;whiteSpace=wrap;html=1;gradientColor=none;fillColor=none;" parent="1" vertex="1">
          <mxGeometry x="855" y="335.5" width="90" height="40" as="geometry" />
        </mxCell>
        <mxCell id="zyEopgTi7AJE60l7FQdP-43" value="" style="ellipse;whiteSpace=wrap;html=1;aspect=fixed;" parent="1" vertex="1">
          <mxGeometry x="975" y="395" width="10" height="10" as="geometry" />
        </mxCell>
        <mxCell id="zyEopgTi7AJE60l7FQdP-44" value="" style="ellipse;whiteSpace=wrap;html=1;aspect=fixed;" parent="1" vertex="1">
          <mxGeometry x="975" y="365" width="10" height="10" as="geometry" />
        </mxCell>
        <mxCell id="zyEopgTi7AJE60l7FQdP-45" value="" style="ellipse;whiteSpace=wrap;html=1;aspect=fixed;" parent="1" vertex="1">
          <mxGeometry x="975" y="345" width="10" height="10" as="geometry" />
        </mxCell>
        <mxCell id="zyEopgTi7AJE60l7FQdP-46" value="" style="ellipse;whiteSpace=wrap;html=1;aspect=fixed;fillColor=#000000;" parent="1" vertex="1">
          <mxGeometry x="975" y="310" width="10" height="10" as="geometry" />
        </mxCell>
        <mxCell id="zyEopgTi7AJE60l7FQdP-49" value="" style="endArrow=none;html=1;rounded=0;exitX=1;exitY=0.25;exitDx=0;exitDy=0;entryX=0;entryY=0.5;entryDx=0;entryDy=0;" parent="1" source="zyEopgTi7AJE60l7FQdP-42" target="zyEopgTi7AJE60l7FQdP-46" edge="1">
          <mxGeometry width="50" height="50" relative="1" as="geometry">
            <mxPoint x="955" y="346" as="sourcePoint" />
            <mxPoint x="985" y="320" as="targetPoint" />
            <Array as="points">
              <mxPoint x="955" y="315" />
            </Array>
          </mxGeometry>
        </mxCell>
        <mxCell id="zyEopgTi7AJE60l7FQdP-50" value="" style="endArrow=none;html=1;rounded=0;exitX=1;exitY=0.5;exitDx=0;exitDy=0;entryX=0;entryY=0.5;entryDx=0;entryDy=0;" parent="1" source="zyEopgTi7AJE60l7FQdP-42" target="zyEopgTi7AJE60l7FQdP-45" edge="1">
          <mxGeometry width="50" height="50" relative="1" as="geometry">
            <mxPoint x="965" y="356" as="sourcePoint" />
            <mxPoint x="995" y="330" as="targetPoint" />
            <Array as="points">
              <mxPoint x="955" y="350" />
            </Array>
          </mxGeometry>
        </mxCell>
        <mxCell id="zyEopgTi7AJE60l7FQdP-51" value="" style="endArrow=none;html=1;rounded=0;exitX=1;exitY=0.75;exitDx=0;exitDy=0;entryX=0;entryY=0.5;entryDx=0;entryDy=0;" parent="1" source="zyEopgTi7AJE60l7FQdP-42" target="zyEopgTi7AJE60l7FQdP-44" edge="1">
          <mxGeometry width="50" height="50" relative="1" as="geometry">
            <mxPoint x="975" y="366" as="sourcePoint" />
            <mxPoint x="1005" y="340" as="targetPoint" />
            <Array as="points">
              <mxPoint x="955" y="370" />
            </Array>
          </mxGeometry>
        </mxCell>
        <mxCell id="zyEopgTi7AJE60l7FQdP-52" value="" style="endArrow=none;html=1;rounded=0;exitX=1;exitY=1;exitDx=0;exitDy=0;entryX=0;entryY=0.5;entryDx=0;entryDy=0;" parent="1" source="zyEopgTi7AJE60l7FQdP-42" target="zyEopgTi7AJE60l7FQdP-43" edge="1">
          <mxGeometry width="50" height="50" relative="1" as="geometry">
            <mxPoint x="985" y="376" as="sourcePoint" />
            <mxPoint x="1015" y="350" as="targetPoint" />
            <Array as="points">
              <mxPoint x="955" y="400" />
            </Array>
          </mxGeometry>
        </mxCell>
        <mxCell id="zyEopgTi7AJE60l7FQdP-54" value="id" style="text;html=1;strokeColor=none;fillColor=none;align=center;verticalAlign=middle;whiteSpace=wrap;rounded=0;" parent="1" vertex="1">
          <mxGeometry x="975" y="310" width="50" height="10" as="geometry" />
        </mxCell>
        <mxCell id="zyEopgTi7AJE60l7FQdP-55" value="description" style="text;html=1;strokeColor=none;fillColor=none;align=center;verticalAlign=middle;whiteSpace=wrap;rounded=0;" parent="1" vertex="1">
          <mxGeometry x="995" y="345" width="58" height="10" as="geometry" />
        </mxCell>
        <mxCell id="zyEopgTi7AJE60l7FQdP-56" value="image" style="text;html=1;strokeColor=none;fillColor=none;align=center;verticalAlign=middle;whiteSpace=wrap;rounded=0;" parent="1" vertex="1">
          <mxGeometry x="995" y="365" width="30" height="10" as="geometry" />
        </mxCell>
        <mxCell id="zyEopgTi7AJE60l7FQdP-57" value="date" style="text;html=1;strokeColor=none;fillColor=none;align=center;verticalAlign=middle;whiteSpace=wrap;rounded=0;" parent="1" vertex="1">
          <mxGeometry x="985" y="385" width="40" height="10" as="geometry" />
        </mxCell>
        <mxCell id="zyEopgTi7AJE60l7FQdP-58" value="(1,1)" style="text;html=1;align=center;verticalAlign=middle;resizable=0;points=[];autosize=1;strokeColor=none;fillColor=none;" parent="1" vertex="1">
          <mxGeometry x="805" y="353" width="50" height="30" as="geometry" />
        </mxCell>
        <mxCell id="zyEopgTi7AJE60l7FQdP-59" value="follows" style="shape=rhombus;perimeter=rhombusPerimeter;whiteSpace=wrap;html=1;align=center;fillColor=none;gradientColor=none;" parent="1" vertex="1">
          <mxGeometry x="520" y="195" width="120" height="65" as="geometry" />
        </mxCell>
        <mxCell id="zyEopgTi7AJE60l7FQdP-60" value="" style="endArrow=none;html=1;rounded=0;entryX=0;entryY=0.5;entryDx=0;entryDy=0;exitX=0;exitY=0.25;exitDx=0;exitDy=0;" parent="1" source="zyEopgTi7AJE60l7FQdP-5" target="zyEopgTi7AJE60l7FQdP-59" edge="1">
          <mxGeometry width="50" height="50" relative="1" as="geometry">
            <mxPoint x="365" y="295" as="sourcePoint" />
            <mxPoint x="415" y="245" as="targetPoint" />
            <Array as="points">
              <mxPoint x="485" y="345" />
              <mxPoint x="485" y="228" />
            </Array>
          </mxGeometry>
        </mxCell>
        <mxCell id="zyEopgTi7AJE60l7FQdP-61" value="" style="endArrow=none;html=1;rounded=0;entryX=1;entryY=0.5;entryDx=0;entryDy=0;exitX=1;exitY=0.25;exitDx=0;exitDy=0;" parent="1" source="zyEopgTi7AJE60l7FQdP-5" target="zyEopgTi7AJE60l7FQdP-59" edge="1">
          <mxGeometry width="50" height="50" relative="1" as="geometry">
            <mxPoint x="545" y="356" as="sourcePoint" />
            <mxPoint x="530" y="238" as="targetPoint" />
            <Array as="points">
              <mxPoint x="695" y="345" />
              <mxPoint x="695" y="228" />
            </Array>
          </mxGeometry>
        </mxCell>
        <mxCell id="zyEopgTi7AJE60l7FQdP-62" value="" style="endArrow=none;html=1;rounded=0;entryX=0;entryY=0.5;entryDx=0;entryDy=0;exitX=1;exitY=0.5;exitDx=0;exitDy=0;" parent="1" source="zyEopgTi7AJE60l7FQdP-5" target="zyEopgTi7AJE60l7FQdP-40" edge="1">
          <mxGeometry relative="1" as="geometry">
            <mxPoint x="495" y="366" as="sourcePoint" />
            <mxPoint x="545" y="366" as="targetPoint" />
          </mxGeometry>
        </mxCell>
        <mxCell id="zyEopgTi7AJE60l7FQdP-63" value="comments" style="shape=rhombus;perimeter=rhombusPerimeter;whiteSpace=wrap;html=1;align=center;fillColor=none;gradientColor=none;" parent="1" vertex="1">
          <mxGeometry x="685" y="405" width="120" height="65" as="geometry" />
        </mxCell>
        <mxCell id="zyEopgTi7AJE60l7FQdP-64" value="" style="ellipse;whiteSpace=wrap;html=1;aspect=fixed;fillColor=#000000;" parent="1" vertex="1">
          <mxGeometry x="555" y="275" width="10" height="10" as="geometry" />
        </mxCell>
        <mxCell id="zyEopgTi7AJE60l7FQdP-65" value="" style="endArrow=none;html=1;rounded=0;entryX=0.5;entryY=1;entryDx=0;entryDy=0;exitX=0.276;exitY=-0.004;exitDx=0;exitDy=0;exitPerimeter=0;" parent="1" source="zyEopgTi7AJE60l7FQdP-5" target="zyEopgTi7AJE60l7FQdP-64" edge="1">
          <mxGeometry width="50" height="50" relative="1" as="geometry">
            <mxPoint x="675" y="315" as="sourcePoint" />
            <mxPoint x="655" y="300" as="targetPoint" />
            <Array as="points">
              <mxPoint x="560" y="315" />
            </Array>
          </mxGeometry>
        </mxCell>
        <mxCell id="zyEopgTi7AJE60l7FQdP-66" value="profile_picture" style="text;html=1;strokeColor=none;fillColor=none;align=center;verticalAlign=middle;whiteSpace=wrap;rounded=0;" parent="1" vertex="1">
          <mxGeometry x="635" y="313" width="30" height="10" as="geometry" />
        </mxCell>
        <mxCell id="zyEopgTi7AJE60l7FQdP-68" value="" style="ellipse;whiteSpace=wrap;html=1;aspect=fixed;fillColor=#000000;" parent="1" vertex="1">
          <mxGeometry x="575" y="295" width="10" height="10" as="geometry" />
        </mxCell>
        <mxCell id="zyEopgTi7AJE60l7FQdP-69" value="" style="endArrow=none;html=1;rounded=0;entryX=0.5;entryY=1;entryDx=0;entryDy=0;exitX=0.5;exitY=0;exitDx=0;exitDy=0;" parent="1" source="zyEopgTi7AJE60l7FQdP-5" target="zyEopgTi7AJE60l7FQdP-68" edge="1">
          <mxGeometry width="50" height="50" relative="1" as="geometry">
            <mxPoint x="570" y="345" as="sourcePoint" />
            <mxPoint x="665" y="310" as="targetPoint" />
            <Array as="points" />
          </mxGeometry>
        </mxCell>
        <mxCell id="zyEopgTi7AJE60l7FQdP-70" value="" style="ellipse;whiteSpace=wrap;html=1;aspect=fixed;" parent="1" vertex="1">
          <mxGeometry x="595" y="315.5" width="10" height="10" as="geometry" />
        </mxCell>
        <mxCell id="zyEopgTi7AJE60l7FQdP-71" value="" style="endArrow=none;html=1;rounded=0;entryX=0.5;entryY=1;entryDx=0;entryDy=0;" parent="1" target="zyEopgTi7AJE60l7FQdP-70" edge="1">
          <mxGeometry width="50" height="50" relative="1" as="geometry">
            <mxPoint x="600" y="335.5" as="sourcePoint" />
            <mxPoint x="695" y="315.5" as="targetPoint" />
            <Array as="points">
              <mxPoint x="600" y="330.5" />
            </Array>
          </mxGeometry>
        </mxCell>
        <mxCell id="zyEopgTi7AJE60l7FQdP-72" value="username" style="text;html=1;strokeColor=none;fillColor=none;align=center;verticalAlign=middle;whiteSpace=wrap;rounded=0;" parent="1" vertex="1">
          <mxGeometry x="600" y="295" width="40" height="10" as="geometry" />
        </mxCell>
        <mxCell id="zyEopgTi7AJE60l7FQdP-73" value="" style="endArrow=none;html=1;rounded=0;entryX=0.5;entryY=1;entryDx=0;entryDy=0;exitX=0;exitY=0.5;exitDx=0;exitDy=0;" parent="1" source="zyEopgTi7AJE60l7FQdP-63" target="zyEopgTi7AJE60l7FQdP-5" edge="1">
          <mxGeometry width="50" height="50" relative="1" as="geometry">
            <mxPoint x="545" y="465" as="sourcePoint" />
            <mxPoint x="595" y="415" as="targetPoint" />
            <Array as="points">
              <mxPoint x="580" y="438" />
            </Array>
          </mxGeometry>
        </mxCell>
        <mxCell id="zyEopgTi7AJE60l7FQdP-74" value="" style="endArrow=none;html=1;rounded=0;entryX=1;entryY=0.5;entryDx=0;entryDy=0;exitX=0.5;exitY=1;exitDx=0;exitDy=0;" parent="1" source="zyEopgTi7AJE60l7FQdP-42" target="zyEopgTi7AJE60l7FQdP-63" edge="1">
          <mxGeometry width="50" height="50" relative="1" as="geometry">
            <mxPoint x="695" y="448" as="sourcePoint" />
            <mxPoint x="590" y="386" as="targetPoint" />
            <Array as="points">
              <mxPoint x="900" y="438" />
            </Array>
          </mxGeometry>
        </mxCell>
        <mxCell id="zyEopgTi7AJE60l7FQdP-77" value="id" style="text;html=1;strokeColor=none;fillColor=none;align=center;verticalAlign=middle;whiteSpace=wrap;rounded=0;" parent="1" vertex="1">
          <mxGeometry x="555" y="275" width="40" height="10" as="geometry" />
        </mxCell>
        <mxCell id="zyEopgTi7AJE60l7FQdP-78" value="(0,n)" style="text;html=1;align=center;verticalAlign=middle;resizable=0;points=[];autosize=1;strokeColor=none;fillColor=none;" parent="1" vertex="1">
          <mxGeometry x="625" y="353" width="50" height="30" as="geometry" />
        </mxCell>
        <mxCell id="zyEopgTi7AJE60l7FQdP-79" value="date" style="text;html=1;strokeColor=none;fillColor=none;align=center;verticalAlign=middle;whiteSpace=wrap;rounded=0;" parent="1" vertex="1">
          <mxGeometry x="795" y="475" width="30" height="10" as="geometry" />
        </mxCell>
        <mxCell id="zyEopgTi7AJE60l7FQdP-80" value="" style="ellipse;whiteSpace=wrap;html=1;aspect=fixed;fillColor=none;" parent="1" vertex="1">
          <mxGeometry x="765" y="495" width="10" height="10" as="geometry" />
        </mxCell>
        <mxCell id="zyEopgTi7AJE60l7FQdP-81" value="" style="endArrow=none;html=1;rounded=0;entryX=0.5;entryY=0;entryDx=0;entryDy=0;exitX=0.709;exitY=0.788;exitDx=0;exitDy=0;exitPerimeter=0;" parent="1" source="zyEopgTi7AJE60l7FQdP-63" target="zyEopgTi7AJE60l7FQdP-80" edge="1">
          <mxGeometry width="50" height="50" relative="1" as="geometry">
            <mxPoint x="770" y="536" as="sourcePoint" />
            <mxPoint x="855" y="510" as="targetPoint" />
            <Array as="points" />
          </mxGeometry>
        </mxCell>
        <mxCell id="zyEopgTi7AJE60l7FQdP-82" value="" style="ellipse;whiteSpace=wrap;html=1;aspect=fixed;" parent="1" vertex="1">
          <mxGeometry x="780" y="475" width="10" height="10" as="geometry" />
        </mxCell>
        <mxCell id="zyEopgTi7AJE60l7FQdP-83" value="" style="endArrow=none;html=1;rounded=0;entryX=0.5;entryY=0;entryDx=0;entryDy=0;exitX=0.831;exitY=0.667;exitDx=0;exitDy=0;exitPerimeter=0;" parent="1" source="zyEopgTi7AJE60l7FQdP-63" target="zyEopgTi7AJE60l7FQdP-82" edge="1">
          <mxGeometry width="50" height="50" relative="1" as="geometry">
            <mxPoint x="790" y="535.5" as="sourcePoint" />
            <mxPoint x="885" y="515.5" as="targetPoint" />
            <Array as="points" />
          </mxGeometry>
        </mxCell>
        <mxCell id="zyEopgTi7AJE60l7FQdP-84" value="content" style="text;html=1;strokeColor=none;fillColor=none;align=center;verticalAlign=middle;whiteSpace=wrap;rounded=0;" parent="1" vertex="1">
          <mxGeometry x="785" y="495" width="40" height="10" as="geometry" />
        </mxCell>
        <mxCell id="zyEopgTi7AJE60l7FQdP-85" value="(0,n)" style="text;html=1;align=center;verticalAlign=middle;resizable=0;points=[];autosize=1;strokeColor=none;fillColor=none;" parent="1" vertex="1">
          <mxGeometry x="575" y="375.5" width="50" height="30" as="geometry" />
        </mxCell>
        <mxCell id="zyEopgTi7AJE60l7FQdP-86" value="(0,n)" style="text;html=1;align=center;verticalAlign=middle;resizable=0;points=[];autosize=1;strokeColor=none;fillColor=none;" parent="1" vertex="1">
          <mxGeometry x="855" y="375.5" width="50" height="30" as="geometry" />
        </mxCell>
        <mxCell id="zyEopgTi7AJE60l7FQdP-87" value="(0,n)" style="text;html=1;align=center;verticalAlign=middle;resizable=0;points=[];autosize=1;strokeColor=none;fillColor=none;" parent="1" vertex="1">
          <mxGeometry x="635" y="323" width="50" height="30" as="geometry" />
        </mxCell>
        <mxCell id="zyEopgTi7AJE60l7FQdP-88" value="(0,n)" style="text;html=1;align=center;verticalAlign=middle;resizable=0;points=[];autosize=1;strokeColor=none;fillColor=none;" parent="1" vertex="1">
          <mxGeometry x="485" y="315.5" width="50" height="30" as="geometry" />
        </mxCell>
        <mxCell id="zyEopgTi7AJE60l7FQdP-89" value="(0,1)" style="text;html=1;align=center;verticalAlign=middle;resizable=0;points=[];autosize=1;strokeColor=none;fillColor=none;" parent="1" vertex="1">
          <mxGeometry x="590" y="315.5" width="50" height="30" as="geometry" />
        </mxCell>
        <mxCell id="zyEopgTi7AJE60l7FQdP-90" value="(1,10)" style="text;html=1;align=center;verticalAlign=middle;resizable=0;points=[];autosize=1;strokeColor=none;fillColor=none;" parent="1" vertex="1">
          <mxGeometry x="940" y="365" width="50" height="30" as="geometry" />
        </mxCell>
        <mxCell id="zyEopgTi7AJE60l7FQdP-91" value="(0,1)" style="text;html=1;align=center;verticalAlign=middle;resizable=0;points=[];autosize=1;strokeColor=none;fillColor=none;" parent="1" vertex="1">
          <mxGeometry x="940" y="325" width="45" height="30" as="geometry" />
        </mxCell>
      </root>
    </mxGraphModel>
  </diagram>
</mxfile>
